<svg width="114" height="138" viewBox="0 0 114 138" fill="none" xmlns="http://www.w3.org/2000/svg">
  <path fill-rule="evenodd" clip-rule="evenodd"
        d="M0.0329329 6.6069C0.218769 2.93332 3.27918 0 7.06411 0C7.55104 0 8.0074 0.0555202 8.45199 0.136487C8.46846 0.1388 8.48728 0.141114 8.5108 0.148054C12.4651 0.906829 14.5681 4.56885 14.5681 4.57116H14.5705V105.403H0V6.61615L0.0329329 6.6069ZM16.5701 105.403V6.61393L31.1429 21.4702V105.403H16.5701ZM16.5701 107.374H31.1429V121.702H16.5701V107.374ZM49.7141 77.386V40.4049L56.997 47.8307L64.2869 40.4072V77.386L56.997 84.8118L49.7141 77.386ZM33.1428 60.4917V23.5083L47.718 38.3623V75.3433H47.7156L33.1428 60.4917ZM0 107.374H14.5705V121.702H0V107.374ZM0 123.669H14.5705V137.998L14.554 138H0V123.669ZM99.4296 107.374H113.998L114 107.39V121.702H99.4296V107.374ZM105.55 0.136487C105.993 0.0555202 106.449 0 106.936 0C110.718 0 113.817 2.94026 113.998 6.61615V105.403H99.4296V4.57116C99.4296 4.56885 101.537 0.906829 105.492 0.148054C105.51 0.141114 105.527 0.1388 105.55 0.136487ZM99.4296 123.669H113.998L114 123.69V137.998L113.981 138H99.4296V123.669ZM66.2842 38.3623L80.857 23.5083V60.4917L66.2842 75.3456V38.3623ZM82.8544 107.374H97.4248L97.4272 107.39V121.702H82.8544V107.374ZM82.8544 21.4701L97.4248 6.61614L97.4272 6.63002V105.403H82.8544V21.4701Z"
        fill="url(#paint0_linear)"/>
  <defs>
    <linearGradient id="paint0_linear" x1="114" y1="0" x2="114" y2="138" gradientUnits="userSpaceOnUse">
      <stop  offset="0" style="stop-color: #f7c35d;"/>
      <stop  offset="0.3" style="stop-color: #e98d43;"/>
      <stop  offset="0.6" style="stop-color: #d76538;"/>
      <stop  offset="0.85" style="stop-color: #cc4d31;"/>
      <stop  offset="1" style="stop-color: #cd4a37;"/>
    </linearGradient>
  </defs>
</svg>
