<svg xmlns="http://www.w3.org/2000/svg" height="800" width="1200" viewBox="-59.99985 -36.2975 519.9987 217.785"><g fill="#F5B919"><path d="M67.014 11.318C29.841 11.42-.063 41.37 0 78.434c.063 36.872 30.354 66.841 67.473 66.756 37.1-.085 66.962-30.314 66.824-67.645-.135-36.583-30.355-66.329-67.283-66.227zm.212 11.392c30.81.058 55.6 24.867 55.581 55.622-.019 30.637-25.009 55.419-55.837 55.371-30.56-.047-55.496-24.987-55.472-55.485.024-30.691 24.998-55.567 55.728-55.508zm246.079 46.761c0 6.024.061 12.049-.013 18.073-.162 13.153 5.853 22.765 17.55 28.15 17.031 7.841 34.537 7.818 51.57-.012 11.726-5.39 17.621-15.082 17.587-28.172-.033-12.813-.002-25.627-.01-38.441-.003-4.227-1.23-5.459-5.428-5.471-4.303-.012-8.606-.029-12.909.008-3.293.029-4.519 1.05-4.928 4.296-.238 1.889-.212 3.815-.243 5.725-.176 10.803-.332 21.606-.497 32.409-.14 9.145-3.992 13.957-12.983 15.743-5.403 1.073-10.858.951-16.136-.848-6.64-2.263-10.009-7.025-10.055-14.044-.079-12.048-.127-24.095-.202-36.143-.007-1.049-.094-2.1-.186-3.146-.23-2.618-1.675-3.976-4.304-3.988-4.877-.022-9.754-.063-14.63.011-2.865.043-4.162 1.526-4.174 4.62-.028 7.077-.009 14.153-.009 21.23zm-70.607-25.875c-2.199 0-4.41.144-6.594-.033-3.47-.282-5.287 1.581-6.49 4.487-5.182 12.514-10.376 25.022-15.569 37.531-1.243 2.995-2.5 5.985-3.746 8.979-.939 2.257-2.374 4.059-4.994 4.089-2.763.032-4.21-1.839-5.193-4.209-6.247-15.066-12.52-30.121-18.775-45.184-2.142-5.156-2.884-5.661-8.54-5.661-4.11 0-8.222-.014-12.333.005-3.62.016-4.85 1.794-3.393 5.143 2.323 5.336 4.773 10.617 7.181 15.915 6.67 14.679 13.366 29.345 20.012 44.035 3.714 8.211 9.776 12.745 19.03 12.46 2.577-.079 5.177.073 7.731-.209 6.905-.762 11.634-4.778 14.438-10.852 9.396-20.355 18.628-40.785 27.875-61.208 1.587-3.505.356-5.266-3.47-5.286-2.39-.012-4.78-.002-7.17-.002zm50.6 38.757c0-11.37.01-22.74-.006-34.11-.006-3.941-.73-4.643-4.688-4.658-4.108-.016-8.217-.012-12.325-.001-4.185.011-5.046.815-5.052 5.027-.024 19.587-.013 39.174-.012 58.761 0 3.248.056 6.498.008 9.745-.04 2.744 1.188 4.033 3.974 3.989 4.585-.072 9.173.008 13.758-.062 3.365-.051 4.33-1.093 4.336-4.58.02-11.371.007-22.741.007-34.111zm-24.24-68.975c.035 7.439 5.851 13.12 13.382 13.071 7.25-.047 13.091-5.905 13.107-13.141.016-7.293-6.006-13.31-13.319-13.308-7.323.003-13.205 5.977-13.17 13.378z"/><path d="M43.586 48.726c0 1.626.16 3.27-.034 4.873-.395 3.266 1.285 4.899 4.07 6.036 11.658 4.758 23.286 9.592 34.925 14.398.53.218 1.062.427 1.593.64 2.046.817 3.885 1.895 3.808 4.44-.072 2.365-1.799 3.371-3.765 4.174-7.418 3.031-14.816 6.111-22.219 9.179-4.935 2.045-9.849 4.141-14.806 6.133-2.519 1.012-3.76 2.614-3.616 5.457.18 3.529.028 7.074.048 10.612.02 3.386 1.365 4.258 4.522 2.836 10.701-4.82 21.383-9.68 32.075-14.521 4.607-2.086 9.172-4.272 13.837-6.219 11.867-4.953 12.905-11.014 11.93-22.43-.487-5.685-3.994-9.431-8.977-11.709-16.227-7.42-32.499-14.74-48.773-22.058-3.319-1.492-4.597-.604-4.617 2.996-.009 1.72 0 3.442 0 5.163z"/></g></svg>